<?xml version="1.0" encoding="UTF-8"?>
<!DOCTYPE svg PUBLIC "-//W3C//DTD SVG 1.1//EN" "http://www.w3.org/Graphics/SVG/1.1/DTD/svg11.dtd">
<!-- Creator: CorelDRAW X6 -->
<svg xmlns="http://www.w3.org/2000/svg" xml:space="preserve" width="96px" height="96px" version="1.1" style="shape-rendering:geometricPrecision; text-rendering:geometricPrecision; image-rendering:optimizeQuality; fill-rule:evenodd; clip-rule:evenodd"
viewBox="0 0 17 17"
 xmlns:xlink="http://www.w3.org/1999/xlink">
 <defs>
  <style type="text/css">
   <![CDATA[
    .str1 {stroke:#373435;stroke-width:0.245904}
    .str0 {stroke:#373435;stroke-width:0.266167;stroke-linecap:round;stroke-linejoin:round}
    .fil1 {fill:none}
    .fil2 {fill:#373435}
    .fil0 {fill:#FEFEFE}
   ]]>
  </style>
   <clipPath id="id0">
    <path d="M8 0c5,0 8,4 8,8 0,5 -4,8 -8,8 -5,0 -8,-4 -8,-8 0,-5 4,-8 8,-8z"/>
   </clipPath>
 </defs>
 <g id="Camada_x0020_1">
  <metadata id="CorelCorpID_0Corel-Layer"/>
  <path class="fil0" d="M8 0c5,0 8,4 8,8 0,5 -4,8 -8,8 -5,0 -8,-4 -8,-8 0,-5 4,-8 8,-8z"/>
  <g style="clip-path:url(#id0)">
   <g id="_417855000">
    <path id="1" class="fil1 str0" d="M3 8c1,5 6,5 7,5 1,0 5,-1 5,-6 -1,-8 -14,-7 -12,1z"/>
    <path class="fil1 str0" d="M15 5c-3,1 -5,-1 -7,-3 -1,2 -2,4 -4,5 -1,1 -3,1 -4,0 0,-1 1,-1 1,-1"/>
    <path class="fil1 str0" d="M11 10c0,0 -1,1 -3,1 -1,0 -2,-1 -2,-1 0,0 1,-1 1,-1 0,0 1,1 2,1 1,0 2,-1 2,-1l1 0z"/>
    <path class="fil1 str0" d="M4 17c0,0 2,2 5,2 3,0 5,-2 5,-2l-1 -5c0,0 -3,2 -5,2 -2,0 -4,-2 -4,-2l0 5z"/>
    <polygon class="fil1 str0" points="7,13 7,15 9,14 11,15 12,13 9,14 "/>
    <path class="fil1 str0" d="M8 14c0,0 0,-1 1,0 0,0 0,2 0,2 0,0 0,1 -1,1 0,0 -1,-1 -1,-1l0 -2z"/>
    <path class="fil1 str0" d="M14 12c1,2 1,3 2,6"/>
    <polyline class="fil1 str0" points="11,23 10,19 8,19 8,24 "/>
    <polygon class="fil1 str0" points="11,24 11,23 13,23 13,24 "/>
    <path class="fil1 str0" d="M8 23l0 1 -2 0c0,-1 0,-1 0,-1 0,0 1,0 2,0z"/>
    <ellipse class="fil2" cx="7" cy="8"/>
    <ellipse class="fil2" cx="10" cy="8"/>
    <line class="fil1 str1" x1="8" y1="10" x2="7" y2= "11" />
    <line class="fil1 str1" x1="8" y1="10" x2="8" y2= "11" />
    <line class="fil1 str1" x1="9" y1="10" x2="9" y2= "11" />
    <line class="fil1 str1" x1="9" y1="10" x2="10" y2= "11" />
    <line class="fil1 str1" x1="10" y1="10" x2="11" y2= "11" />
    <path class="fil1 str0" d="M4 11c0,2 -3,4 -2,7"/>
   </g>
  </g>
  <path class="fil1 str1" d="M8 0c5,0 8,4 8,8 0,5 -4,8 -8,8 -5,0 -8,-4 -8,-8 0,-5 4,-8 8,-8z"/>
 </g>
</svg>
